<svg width="72" height="49" viewBox="0 0 72 49" fill="none" xmlns="http://www.w3.org/2000/svg">
<path d="M32.4966 47.7266C32.4324 47.9751 32.2873 48.1952 32.0843 48.3522C31.8812 48.5092 31.6317 48.5942 31.375 48.5938C31.2776 48.5942 31.1805 48.5825 31.0859 48.5591L21.8359 46.2466C21.7073 46.2147 21.585 46.1609 21.4746 46.0876L14.5371 41.4626C14.4107 41.3783 14.3021 41.27 14.2176 41.1437C14.1331 41.0175 14.0742 40.8759 14.0444 40.7269C14.0146 40.5779 14.0145 40.4245 14.0439 40.2755C14.0734 40.1265 14.132 39.9847 14.2162 39.8583C14.3864 39.603 14.6511 39.4258 14.9519 39.3656C15.1009 39.3358 15.2543 39.3357 15.4033 39.3651C15.5524 39.3946 15.6941 39.4532 15.8205 39.5374L22.5904 44.0526L31.6641 46.3159C31.8115 46.3537 31.95 46.4201 32.0717 46.5115C32.1934 46.6029 32.2958 46.7174 32.3732 46.8484C32.4505 46.9795 32.5012 47.1245 32.5224 47.2752C32.5436 47.4259 32.5348 47.5793 32.4966 47.7266ZM70.8754 19.7598C70.7334 20.1919 70.5069 20.5915 70.2092 20.9354C69.9115 21.2793 69.5484 21.5606 69.141 21.763L62.1284 25.2722L46.0738 41.3267C45.9311 41.4654 45.755 41.5648 45.5625 41.6154C45.3701 41.6661 45.1679 41.6662 44.9754 41.6158L26.4754 36.9908C26.3337 36.9565 26.2001 36.8946 26.0823 36.8087L9.96414 25.3069L2.86477 21.7543C2.45724 21.5507 2.09381 21.2688 1.79524 20.9247C1.49667 20.5806 1.26881 20.181 1.12467 19.7489C0.980522 19.3167 0.922919 18.8604 0.955148 18.406C0.987377 17.9515 1.10881 17.5079 1.3125 17.1004L8.49281 2.73978C8.69644 2.33225 8.97835 1.96882 9.32245 1.67025C9.66654 1.37169 10.0661 1.14382 10.4982 0.999678C10.9304 0.855534 11.3867 0.797931 11.8412 0.83016C12.2956 0.862389 12.7392 0.983817 13.1467 1.18751L19.9281 4.57822L35.682 0.0746216C35.8901 0.0168335 36.1099 0.0168335 36.318 0.0746216L52.0719 4.57822L58.8533 1.18751C59.2608 0.983817 59.7044 0.862389 60.1588 0.83016C60.6133 0.797931 61.0696 0.855534 61.5018 0.999678C61.9339 1.14382 62.3335 1.37169 62.6776 1.67025C63.0216 1.96882 63.3036 2.33225 63.5072 2.73978L70.6875 17.1033C70.8926 17.5102 71.0149 17.9538 71.0471 18.4083C71.0794 18.8629 71.021 19.3193 70.8754 19.7511V19.7598ZM3.89672 19.6875L10.0451 22.7602L18.2602 6.32993L12.1148 3.2572C11.9791 3.18905 11.8313 3.1483 11.6798 3.13727C11.5283 3.12625 11.3762 3.14516 11.2321 3.19294C11.0879 3.24072 10.9546 3.31643 10.8397 3.41574C10.7248 3.51505 10.6306 3.63601 10.5625 3.77173L3.38219 18.1352C3.31404 18.271 3.27328 18.4188 3.26226 18.5702C3.25123 18.7217 3.27015 18.8738 3.31793 19.018C3.36571 19.1621 3.44142 19.2954 3.54073 19.4103C3.64004 19.5252 3.761 19.6194 3.89672 19.6875ZM55.0781 29.0329L45.3136 21.2109C39.9573 26.0556 32.9475 26.8505 27.2009 23.1794C26.7618 22.901 26.3909 22.5274 26.1156 22.0864C25.8403 21.6453 25.6677 21.148 25.6106 20.6312C25.5534 20.1145 25.6131 19.5914 25.7853 19.1009C25.9575 18.6103 26.2378 18.1647 26.6055 17.797L39.8156 4.9829C40.0324 4.77247 40.3229 4.65522 40.625 4.65626H43.9319L36 2.39001L20.619 6.78376L12.0396 23.9454L27.2443 34.8055L44.8945 39.2195L55.0781 29.0329ZM60.0269 24.0842L51.4735 6.96876H41.0933L28.2329 19.4447C28.1131 19.5647 28.0221 19.7103 27.9665 19.8704C27.9109 20.0306 27.8923 20.2013 27.912 20.3697C27.9305 20.5451 27.9881 20.7141 28.0807 20.8642C28.1732 21.0143 28.2984 21.1417 28.4468 21.2369C32.4792 23.8124 38.7952 24.5438 44.4291 18.8666C44.6303 18.6642 44.8993 18.5433 45.1842 18.5273C45.4692 18.5113 45.75 18.6012 45.9727 18.7799L56.7287 27.3939L60.0269 24.0842ZM68.6149 18.1352L61.4375 3.77173C61.3694 3.63601 61.2752 3.51505 61.1603 3.41574C61.0454 3.31643 60.9121 3.24072 60.7679 3.19294C60.6238 3.14516 60.4717 3.12625 60.3202 3.13727C60.1687 3.1483 60.0209 3.18905 59.8852 3.2572L53.7398 6.32993L61.9549 22.7602L68.1033 19.6875C68.239 19.6194 68.36 19.5252 68.4593 19.4103C68.5586 19.2954 68.6343 19.1621 68.6821 19.018C68.7299 18.8738 68.7488 18.7217 68.7377 18.5702C68.7267 18.4188 68.686 18.271 68.6178 18.1352H68.6149Z" fill="black"/>
</svg>
