<svg width="68" height="54" viewBox="0 0 68 54" fill="none" xmlns="http://www.w3.org/2000/svg">
<path d="M67.4243 1.59719C67.4071 1.31484 67.287 1.04858 67.0867 0.848823C66.8864 0.649063 66.6198 0.529659 66.3374 0.51321C51.812 -0.353978 40.1946 4.01087 35.2574 12.1595C31.8927 17.7153 32.0286 24.277 35.6158 30.7202C33.0843 33.5012 31.4126 36.956 30.803 40.6669L24.0129 33.8768C26.5075 29.2518 26.5595 24.5314 24.1343 20.525C20.5441 14.5963 12.1324 11.4282 1.62499 12.0439C1.34408 12.0617 1.07929 12.1812 0.880261 12.3803C0.681232 12.5793 0.561637 12.8441 0.543901 13.125C-0.0718018 23.6266 3.09632 32.0384 9.02499 35.6285C10.9278 36.7966 13.1169 37.415 15.3497 37.4149C17.8142 37.373 20.2294 36.7173 22.3768 35.5071L30.5312 43.6702V52.4375C30.5312 52.7442 30.6531 53.0383 30.8699 53.2551C31.0867 53.4719 31.3808 53.5938 31.6875 53.5938C31.9941 53.5938 32.2882 53.4719 32.5051 53.2551C32.7219 53.0383 32.8437 52.7442 32.8437 52.4375V43.9131C32.8329 39.6443 34.408 35.5236 37.2635 32.3506C40.5848 34.189 43.9322 35.114 47.161 35.114C50.2026 35.1146 53.1851 34.2731 55.778 32.683C63.9237 27.7429 68.2799 16.1255 67.4243 1.59719ZM10.2217 33.6484C5.2296 30.6306 2.49218 23.4416 2.80437 14.3044C11.9416 13.9922 19.1306 16.7296 22.1484 21.7217C24.0216 24.8176 24.0534 28.4771 22.2814 32.154L14.0027 23.8695C13.7827 23.6702 13.4945 23.5631 13.1978 23.5704C12.9011 23.5777 12.6186 23.6988 12.4087 23.9087C12.1988 24.1186 12.0777 24.4011 12.0704 24.6978C12.0631 24.9946 12.1702 25.2827 12.3694 25.5027L20.6569 33.7901C16.9771 35.562 13.3176 35.5302 10.2217 33.6484ZM54.5783 30.7C49.9389 33.5097 44.4351 33.4721 38.9459 30.6277L55.6305 13.9402C55.8384 13.7217 55.9528 13.4308 55.9492 13.1292C55.9456 12.8277 55.8243 12.5396 55.6113 12.3261C55.3983 12.1127 55.1103 11.991 54.8088 11.9869C54.5073 11.9828 54.2161 12.0966 53.9973 12.3041L37.3098 28.9916C34.4654 23.4995 34.4191 18.0073 37.2375 13.3591C41.6052 6.13259 52.0028 2.22157 65.1696 2.7679C65.7188 15.9347 61.7933 26.3323 54.5783 30.7Z" fill="black"/>
</svg>
