<svg width="66" height="66" viewBox="0 0 66 66" fill="none" xmlns="http://www.w3.org/2000/svg">
<path d="M51.7141 35.3904L36.7811 29.8982C36.6274 29.8417 36.4878 29.7524 36.372 29.6366C36.2562 29.5208 36.167 29.3813 36.1105 29.2276L30.6183 14.2946C30.3739 13.6336 29.9329 13.0633 29.3546 12.6605C28.7763 12.2577 28.0884 12.0417 27.3837 12.0417C26.6789 12.0417 25.9911 12.2577 25.4128 12.6605C24.8344 13.0633 24.3934 13.6336 24.1491 14.2946L18.6569 29.2276C18.6003 29.3813 18.5111 29.5208 18.3953 29.6366C18.2795 29.7524 18.1399 29.8417 17.9862 29.8982L3.05328 35.3904C2.39223 35.6347 1.82192 36.0758 1.41913 36.6541C1.01634 37.2324 0.800407 37.9202 0.800407 38.625C0.800407 39.3298 1.01634 40.0176 1.41913 40.5959C1.82192 41.1742 2.39223 41.6153 3.05328 41.8596L17.9862 47.3518C18.1399 47.4083 18.2795 47.4976 18.3953 47.6134C18.5111 47.7292 18.6003 47.8687 18.6569 48.0224L24.1491 62.9554C24.3934 63.6164 24.8344 64.1867 25.4128 64.5895C25.9911 64.9923 26.6789 65.2083 27.3837 65.2083C28.0884 65.2083 28.7763 64.9923 29.3546 64.5895C29.9329 64.1867 30.3739 63.6164 30.6183 62.9554L36.1105 48.0224C36.167 47.8687 36.2562 47.7292 36.372 47.6134C36.4878 47.4976 36.6274 47.4083 36.7811 47.3518L51.7141 41.8596C52.3751 41.6153 52.9454 41.1742 53.3482 40.5959C53.751 40.0176 53.9669 39.3298 53.9669 38.625C53.9669 37.9202 53.751 37.2324 53.3482 36.6541C52.9454 36.0758 52.3751 35.6347 51.7141 35.3904ZM50.9134 39.6887L35.9833 45.1809C35.5151 45.3534 35.0899 45.6255 34.737 45.9783C34.3842 46.3312 34.1121 46.7564 33.9396 47.2246L28.4474 62.1547C28.3675 62.3725 28.2226 62.5605 28.0324 62.6934C27.8421 62.8262 27.6157 62.8974 27.3837 62.8974C27.1516 62.8974 26.9252 62.8262 26.735 62.6934C26.5447 62.5605 26.3999 62.3725 26.3199 62.1547L20.8277 47.2246C20.6552 46.7564 20.3832 46.3312 20.0303 45.9783C19.6775 45.6255 19.2523 45.3534 18.7841 45.1809L3.85398 39.6887C3.63617 39.6088 3.44814 39.4639 3.31531 39.2737C3.18248 39.0835 3.11125 38.857 3.11125 38.625C3.11125 38.393 3.18248 38.1665 3.31531 37.9763C3.44814 37.7861 3.63617 37.6412 3.85398 37.5613L18.7841 32.0691C19.2523 31.8966 19.6775 31.6245 20.0303 31.2717C20.3832 30.9188 20.6552 30.4936 20.8277 30.0254L26.3199 15.0953C26.3999 14.8775 26.5447 14.6895 26.735 14.5566C26.9252 14.4238 27.1516 14.3526 27.3837 14.3526C27.6157 14.3526 27.8421 14.4238 28.0324 14.5566C28.2226 14.6895 28.3675 14.8775 28.4474 15.0953L33.9396 30.0254C34.1121 30.4936 34.3842 30.9188 34.737 31.2717C35.0899 31.6245 35.5151 31.8966 35.9833 32.0691L50.9134 37.5613C51.1312 37.6412 51.3192 37.7861 51.452 37.9763C51.5849 38.1665 51.6561 38.393 51.6561 38.625C51.6561 38.857 51.5849 39.0835 51.452 39.2737C51.3192 39.4639 51.1312 39.6088 50.9134 39.6887ZM37.7812 8.5625C37.7812 8.25584 37.9031 7.96175 38.1199 7.74491C38.3367 7.52807 38.6308 7.40625 38.9375 7.40625H44.7187V1.625C44.7187 1.31834 44.8406 1.02425 45.0574 0.807408C45.2742 0.590569 45.5683 0.46875 45.875 0.46875C46.1817 0.46875 46.4757 0.590569 46.6926 0.807408C46.9094 1.02425 47.0312 1.31834 47.0312 1.625V7.40625H52.8125C53.1192 7.40625 53.4132 7.52807 53.6301 7.74491C53.8469 7.96175 53.9687 8.25584 53.9687 8.5625C53.9687 8.86916 53.8469 9.16325 53.6301 9.38009C53.4132 9.59693 53.1192 9.71875 52.8125 9.71875H47.0312V15.5C47.0312 15.8067 46.9094 16.1008 46.6926 16.3176C46.4757 16.5344 46.1817 16.6562 45.875 16.6562C45.5683 16.6562 45.2742 16.5344 45.0574 16.3176C44.8406 16.1008 44.7187 15.8067 44.7187 15.5V9.71875H38.9375C38.6308 9.71875 38.3367 9.59693 38.1199 9.38009C37.9031 9.16325 37.7812 8.86916 37.7812 8.5625ZM65.5312 22.4375C65.5312 22.7442 65.4094 23.0383 65.1926 23.2551C64.9758 23.4719 64.6817 23.5938 64.375 23.5938H60.9062V27.0625C60.9062 27.3692 60.7844 27.6633 60.5676 27.8801C60.3507 28.0969 60.0567 28.2188 59.75 28.2188C59.4433 28.2188 59.1492 28.0969 58.9324 27.8801C58.7156 27.6633 58.5937 27.3692 58.5937 27.0625V23.5938H55.125C54.8183 23.5938 54.5242 23.4719 54.3074 23.2551C54.0906 23.0383 53.9687 22.7442 53.9687 22.4375C53.9687 22.1308 54.0906 21.8367 54.3074 21.6199C54.5242 21.4031 54.8183 21.2812 55.125 21.2812H58.5937V17.8125C58.5937 17.5058 58.7156 17.2117 58.9324 16.9949C59.1492 16.7781 59.4433 16.6562 59.75 16.6562C60.0567 16.6562 60.3507 16.7781 60.5676 16.9949C60.7844 17.2117 60.9062 17.5058 60.9062 17.8125V21.2812H64.375C64.6817 21.2812 64.9758 21.4031 65.1926 21.6199C65.4094 21.8367 65.5312 22.1308 65.5312 22.4375Z" fill="black"/>
</svg>
