<svg width="159" height="65" viewBox="0 0 159 65" fill="none" xmlns="http://www.w3.org/2000/svg">
<g clip-path="url(#clip0_2188_3160)">
<path d="M78.885 26.8784C79.4143 20.2592 75.0293 12.9044 69.5523 9.36638C69.0787 9.05994 67.5074 9.78427 67.8752 10.0183C73.2073 13.4672 77.6257 20.6659 77.1076 27.1514C77.063 27.7476 78.8459 27.3687 78.885 26.8784Z" fill="#008D36"/>
<path d="M78.1104 24.5101C65.7356 16.4645 88.9252 4.95328 93.26 0C90.7862 8.04003 90.4853 24.5101 78.1104 24.5101Z" fill="#95C11F"/>
<path d="M36.3391 64.3422C36.3391 44.0109 50.7588 27.0505 69.9311 23.128C72.6724 22.5652 75.5029 25.9863 78.4113 25.9863C81.3198 25.9863 84.1502 22.5652 86.8915 23.128C106.064 27.0505 120.484 44.0109 120.484 64.3422" fill="#FFD559"/>
<path d="M36.9576 54.4414H119.86L101.919 64.9609L51.1878 63.7239L36.9576 54.4414Z" fill="#739519"/>
<path d="M0.457031 64.9609C0.457031 64.9609 33.0573 40.9912 79.5313 64.9442L0.457031 64.9609Z" fill="#95C11F"/>
<path d="M75.9096 65.0002C75.9096 65.0002 113.006 41.181 158.834 64.9612L75.9096 65.0002Z" fill="#95C11F"/>
</g>
<defs>
<clipPath id="clip0_2188_3160">
<rect width="158.382" height="65" fill="white" transform="translate(0.457031)"/>
</clipPath>
</defs>
</svg>
