<svg width="234" height="45" viewBox="0 0 234 45" fill="none" xmlns="http://www.w3.org/2000/svg">
<path d="M12.8471 20.1632L6.35668 10.9632C5.84672 10.2419 5.42948 9.58475 5.10496 8.99172H5.0586C5.10496 9.93737 5.13587 10.9952 5.13587 12.1653V20.1792H0.00537109V1.10596H5.24404L11.4717 9.85723C11.549 9.96942 11.6417 10.1137 11.7499 10.274C11.858 10.4342 11.9662 10.5945 12.0899 10.7708C12.2135 10.9471 12.3062 11.1074 12.3989 11.2677C12.4916 11.428 12.5689 11.5722 12.6307 11.7004H12.6771C12.6307 11.3158 12.5998 10.6426 12.5998 9.68092V1.12198H17.7303V20.1953H12.8625L12.8471 20.1632Z" fill="#005D36"/>
<path d="M29.4286 20.1636V18.096H29.3823C28.5169 19.6988 27.1725 20.5002 25.3799 20.5002C24.1436 20.5002 23.1701 20.1155 22.4747 19.3622C21.7793 18.5928 21.4238 17.5831 21.4238 16.3008C21.4238 13.6242 23.0155 12.0695 26.1834 11.6527L29.4441 11.22C29.4441 10.7712 29.2586 10.4186 28.8723 10.1301C28.486 9.84156 27.976 9.69731 27.327 9.69731C25.8589 9.69731 24.2981 10.1301 22.6755 10.9956V7.30914C23.3864 6.98858 24.2672 6.73213 25.349 6.52377C26.4307 6.31541 27.327 6.21924 28.0997 6.21924C30.3249 6.21924 31.9475 6.71611 32.952 7.69381C33.9565 8.68755 34.4664 10.3384 34.4664 12.6465V20.1636H29.475H29.4286ZM26.1989 15.5315C26.1989 15.9001 26.3071 16.2047 26.5389 16.4451C26.7707 16.6855 27.0952 16.7977 27.5124 16.7977C28.0842 16.7977 28.5478 16.5733 28.9032 16.1245C29.2586 15.6757 29.4286 15.1148 29.4286 14.4256V13.9127L27.5742 14.1851C26.647 14.3454 26.1834 14.7942 26.1834 15.5315H26.1989Z" fill="#005D36"/>
<path d="M47.4469 19.987C47.1997 20.1153 46.7979 20.2275 46.2261 20.3397C45.6543 20.4519 44.9744 20.4999 44.1863 20.4999C42.6718 20.4999 41.4665 20.0672 40.6166 19.2017C39.7512 18.3362 39.3339 17.102 39.3339 15.4832V10.4664H37.2632V6.53958H39.3339V3.86291L44.7271 2.32422V6.53958H47.4624V10.4664H44.7271V14.5536C44.7271 15.7557 45.1907 16.3487 46.1025 16.3487C46.5352 16.3487 46.9833 16.2525 47.4624 16.0602V19.987H47.4469Z" fill="#005D36"/>
<path d="M58.8206 20.1629V18.0633H58.7742C58.3261 18.7044 57.9089 19.1852 57.5534 19.4897C57.198 19.7943 56.7808 20.0347 56.3172 20.227C55.8536 20.4194 55.3282 20.4995 54.7255 20.4995C53.2883 20.4995 52.1911 20.0187 51.4494 19.057C50.7076 18.0953 50.3213 16.6688 50.3213 14.7775V6.55518H55.7918V14.3448C55.7918 15.6911 56.2708 16.3483 57.2444 16.3483C57.7698 16.3483 58.1716 16.172 58.4497 15.8033C58.7124 15.4347 58.8515 14.9218 58.8515 14.2646V6.55518H64.322V20.179H58.8515L58.8206 20.1629Z" fill="#005D36"/>
<path d="M78.1061 11.3958C77.9052 11.2996 77.627 11.2035 77.2716 11.1233C76.9162 11.0432 76.6226 11.0111 76.4062 11.0111C74.5982 11.0111 73.7019 12.085 73.7019 14.2648V20.1791H68.2314V6.55536H73.7019V8.94353H73.7483C74.0882 8.07802 74.5518 7.42087 75.17 6.98812C75.7881 6.55536 76.499 6.31494 77.318 6.31494C77.6116 6.31494 77.8743 6.36302 78.1061 6.47522V11.4118V11.3958Z" fill="#005D36"/>
<path d="M88.2743 20.1636V18.096H88.228C87.3626 19.6988 86.0182 20.5002 84.2256 20.5002C82.9893 20.5002 82.0157 20.1155 81.3204 19.3622C80.625 18.5928 80.2695 17.5831 80.2695 16.3008C80.2695 13.6242 81.8612 12.0695 85.0291 11.6527L88.2898 11.22C88.2898 10.7712 88.1043 10.4186 87.718 10.1301C87.3317 9.84156 86.8217 9.69731 86.1727 9.69731C84.7046 9.69731 83.1438 10.1301 81.5212 10.9956V7.30914C82.2321 6.98858 83.1129 6.73213 84.1947 6.52377C85.2764 6.31541 86.1727 6.21924 86.9453 6.21924C89.1706 6.21924 90.7932 6.71611 91.7977 7.69381C92.8021 8.68755 93.3121 10.3384 93.3121 12.6465V20.1636H88.3207H88.2743ZM85.0446 15.5315C85.0446 15.9001 85.1528 16.2047 85.3846 16.4451C85.6164 16.6855 85.9409 16.7977 86.3581 16.7977C86.9299 16.7977 87.3935 16.5733 87.7489 16.1245C88.1044 15.6757 88.2743 15.1148 88.2743 14.4256V13.9127L86.4199 14.1851C85.4927 14.3454 85.0291 14.7942 85.0291 15.5315H85.0446Z" fill="#005D36"/>
<path d="M97.0366 20.1632V0H102.507V20.1632H97.0366Z" fill="#005D36"/>
<path d="M15.0414 31.8992C15.0414 33.1965 14.7169 34.3656 14.0833 35.3746C13.4497 36.3836 12.538 37.1684 11.3636 37.7129C10.1891 38.2574 8.81375 38.5457 7.25297 38.5457H5.55312V44.6797H0.00537109V25.6211H7.54659C10.1427 25.6211 12.0281 26.1336 13.2334 27.1426C14.4388 28.1676 15.0414 29.7531 15.0414 31.8992ZM9.18463 32.0914C9.18463 31.3066 8.96829 30.7301 8.5356 30.3297C8.10291 29.9293 7.45387 29.7371 6.60394 29.7371H5.55312V34.4457H6.80484C8.39653 34.4457 9.18463 33.6609 9.18463 32.1074V32.0914Z" fill="#005D36"/>
<path d="M27.9137 35.9031C27.7128 35.807 27.4347 35.7109 27.0793 35.6309C26.7238 35.5508 26.4302 35.5187 26.2139 35.5187C24.4058 35.5187 23.5095 36.5918 23.5095 38.7699V44.6797H18.0391V31.0664H23.5095V33.4527H23.5559C23.8959 32.5879 24.3595 31.9313 24.9776 31.4988C25.5957 31.0664 26.3066 30.8262 27.1256 30.8262C27.4192 30.8262 27.6819 30.8742 27.9137 30.9863V35.9191V35.9031Z" fill="#005D36"/>
<path d="M45.4225 37.6171C45.4225 39.9073 44.758 41.7171 43.4136 43.0304C42.0692 44.3437 40.1993 45.0003 37.804 45.0003C35.4088 45.0003 33.5544 44.3597 32.2254 43.0784C30.8964 41.7972 30.2319 40.0355 30.2319 37.7772C30.2319 36.3358 30.541 35.0866 31.1746 34.0136C31.8081 32.9405 32.689 32.1397 33.848 31.5632C35.007 31.0026 36.336 30.7144 37.835 30.7144C39.3339 30.7144 40.7402 31.0026 41.8837 31.6112C43.0273 32.2038 43.9081 33.0366 44.5108 34.0776C45.1289 35.1347 45.4225 36.3038 45.4225 37.6171ZM39.8748 37.6491C39.8748 35.7913 39.1948 34.8784 37.8195 34.8784C36.4441 34.8784 35.7642 35.8554 35.7642 37.7933C35.7642 39.8433 36.4596 40.8683 37.835 40.8683C39.2103 40.8683 39.8593 39.7952 39.8593 37.6651L39.8748 37.6491Z" fill="#005D36"/>
<path d="M57.5535 44.6637V43.0781H57.5072C57.0745 43.6707 56.5027 44.1352 55.8073 44.4875C55.1119 44.8238 54.4165 45 53.7365 45C52.6085 45 51.6349 44.7117 50.7695 44.1352C49.9196 43.5586 49.2705 42.7578 48.8533 41.7328C48.4361 40.7078 48.2197 39.4906 48.2197 38.0973C48.2197 36.7039 48.467 35.3746 48.9769 34.2535C49.4869 33.1324 50.1977 32.2676 51.1095 31.643C52.0212 31.0184 53.0566 30.7141 54.1847 30.7141C54.7256 30.7141 55.22 30.7941 55.6836 30.9543C56.1472 31.1145 56.5336 31.3227 56.8736 31.5949C57.2135 31.8672 57.4299 32.1395 57.5226 32.3957H57.569V24.5H63.0394V44.6477H57.569L57.5535 44.6637ZM57.6771 37.4406C57.6771 36.6238 57.5072 35.9992 57.1517 35.5348C56.8118 35.0863 56.3327 34.8621 55.7455 34.8621C55.1582 34.8621 54.6792 35.1344 54.3083 35.7109C53.9374 36.2715 53.752 37.0242 53.752 37.9691C53.752 39.891 54.401 40.852 55.6836 40.852C56.2863 40.852 56.7808 40.5957 57.1363 40.0672C57.5071 39.5547 57.6771 38.802 57.6771 37.793V37.4406Z" fill="#005D36"/>
<path d="M75.3245 44.6637V42.5656H75.2782C74.83 43.2062 74.4128 43.6867 74.0573 43.991C73.6864 44.2953 73.2847 44.5355 72.8211 44.7277C72.3575 44.9199 71.8321 45 71.2294 45C69.7922 45 68.695 44.5195 67.9533 43.5586C67.2115 42.5977 66.8252 41.1723 66.8252 39.2824V31.0664H72.2957V38.85C72.2957 40.1953 72.7747 40.852 73.7483 40.852C74.2737 40.852 74.6755 40.6758 74.9536 40.3074C75.2163 39.9391 75.3554 39.4266 75.3554 38.7699V31.0664H80.8259V44.6797H75.3554L75.3245 44.6637Z" fill="#005D36"/>
<path d="M95.5375 44.2792C95.1821 44.4874 94.6412 44.6636 93.884 44.7917C93.1268 44.9198 92.2614 44.9839 91.2879 44.9839C89.8971 44.9839 88.6608 44.6956 87.579 44.119C86.4819 43.5425 85.6474 42.7257 85.0447 41.6847C84.442 40.6437 84.1484 39.4585 84.1484 38.1612C84.1484 36.6077 84.4729 35.2624 85.1065 34.1573C85.7401 33.0522 86.6519 32.1874 87.8263 31.6108C89.0008 31.0343 90.3761 30.73 91.9369 30.73C92.7868 30.73 93.5595 30.794 94.2394 30.9062C94.9194 31.0183 95.3521 31.1624 95.553 31.3065V35.7269C95.2748 35.5026 94.8885 35.3104 94.3785 35.1343C93.8686 34.9581 93.3895 34.878 92.9568 34.878C91.8905 34.878 91.0715 35.1343 90.5306 35.6628C89.9743 36.1913 89.6962 36.928 89.6962 37.889C89.6962 38.8499 89.9743 39.5546 90.5152 40.0831C91.0561 40.5956 91.7978 40.8679 92.7559 40.8679C93.7758 40.8679 94.703 40.6116 95.5684 40.1151V44.3112L95.5375 44.2792Z" fill="#005D36"/>
<path d="M108.287 44.4876C108.039 44.6157 107.638 44.7278 107.066 44.8399C106.494 44.9521 105.83 45.0001 105.026 45.0001C103.512 45.0001 102.322 44.5677 101.456 43.7028C100.591 42.838 100.174 41.6048 100.174 39.9872V34.9743H98.103V31.0505H100.174V28.3759L105.567 26.8384V31.0505H108.302V34.9743H105.567V39.0583C105.567 40.2595 106.031 40.8521 106.942 40.8521C107.375 40.8521 107.823 40.756 108.302 40.5638V44.4876H108.287Z" fill="#005D36"/>
<path d="M121.978 40.1475C121.978 41.685 121.406 42.8861 120.278 43.735C119.15 44.5838 117.559 45.0002 115.534 45.0002C114.947 45.0002 114.221 44.9361 113.34 44.808C112.474 44.6799 111.764 44.5357 111.223 44.3596V40.3877C112.845 41.1244 114.19 41.5088 115.271 41.5088C116.353 41.5088 116.879 41.2205 116.879 40.6439C116.879 40.4037 116.755 40.2115 116.508 40.0514C116.26 39.8912 115.611 39.635 114.561 39.2666C113.402 38.8822 112.552 38.3857 112.026 37.7451C111.501 37.1045 111.238 36.3037 111.238 35.2787C111.238 33.8693 111.779 32.7482 112.861 31.9314C113.942 31.1146 115.457 30.6982 117.419 30.6982C118.563 30.6982 119.784 30.8744 121.066 31.2107V35.0225C120.526 34.7822 119.938 34.59 119.289 34.4299C118.64 34.2697 118.115 34.1896 117.667 34.1896C117.311 34.1896 117.018 34.2537 116.801 34.3818C116.585 34.51 116.477 34.6861 116.477 34.8943C116.477 35.1506 116.6 35.3588 116.817 35.5189C117.049 35.6791 117.512 35.8713 118.208 36.0955C119.552 36.4959 120.51 37.0244 121.097 37.665C121.685 38.3057 121.963 39.1225 121.963 40.1314L121.978 40.1475Z" fill="#005D36"/>
<path d="M217.746 41.1694C218.332 42.4292 218.881 43.7036 219.387 44.9927H234.05V38.1372C228.374 38.4009 222.902 39.4189 217.746 41.1694Z" fill="#005D36"/>
<path d="M234.05 12.7148C225.305 13.0078 216.831 14.5679 208.833 17.373C206.65 18.1348 204.533 18.9844 202.475 19.9146C204.189 21.5845 205.815 23.3276 207.353 25.1294C208.569 24.6313 209.799 24.1553 211.059 23.7158C218.339 21.1597 226.066 19.7314 234.05 19.4458V12.7222V12.7148Z" fill="#005D36"/>
<path d="M197.656 15.5713C200.6 14.1284 203.669 12.8394 206.855 11.7188C215.49 8.68652 224.624 7.0166 234.05 6.72363V0C218.728 0.461426 204.182 4.45313 191.804 11.1255C193.833 12.5391 195.788 14.0186 197.656 15.5713Z" fill="#005D36"/>
<path d="M213.037 29.3555C212.414 29.5752 211.806 29.8022 211.198 30.0366C212.546 31.9189 213.798 33.8452 214.941 35.8154C215.051 35.7788 215.153 35.7349 215.256 35.6982C221.188 33.6182 227.495 32.4243 234.042 32.146V25.4224C226.733 25.708 219.68 27.0264 213.037 29.3555Z" fill="#005D36"/>
<path d="M159.116 44.9927H162.91C160.39 43.5791 157.673 42.356 154.78 41.3379C149.477 39.4775 143.837 38.4082 137.978 38.1372V44.9927H159.116Z" fill="#005D36"/>
<path d="M163.195 17.3657C155.197 14.5605 146.73 13.0005 137.978 12.7075V19.4312C145.961 19.7168 153.688 21.1523 160.969 23.7012C168.666 26.4038 175.529 30.2271 181.359 35.0537C184.999 38.0713 188.127 41.4111 190.668 44.9854H198.681C195.451 39.4556 191.086 34.3872 185.651 29.8828C179.206 24.5361 171.655 20.3247 163.195 17.3584V17.3657Z" fill="#005D36"/>
<path d="M177.536 39.668C172.255 35.2881 166.015 31.8164 158.991 29.3555C152.341 27.0264 145.288 25.708 137.985 25.4224V32.146C144.526 32.4243 150.832 33.6108 156.772 35.6982C163.049 37.9028 168.593 40.979 173.259 44.8462C173.317 44.8975 173.383 44.9487 173.442 45H183.051C181.411 43.1323 179.572 41.3525 177.551 39.6753L177.536 39.668Z" fill="#005D36"/>
<path d="M212.912 45H205.493C201.794 37.6685 196.411 31.0474 189.467 25.2905C182.48 19.4897 174.306 14.9268 165.18 11.7188C156.545 8.69385 147.412 7.0166 137.978 6.72363V0C171.618 1.00342 201.508 19.0356 212.912 44.9927V45Z" fill="#005D36"/>
</svg>
