<svg width="24" height="24" viewBox="0 0 24 24" fill="none" xmlns="http://www.w3.org/2000/svg">
<path d="M17.4978 2C16.3722 2.01752 15.2711 2.33192 14.3058 2.91144C13.3405 3.49097 12.5451 4.31511 12 5.30062C11.4549 4.31511 10.6595 3.49097 9.69417 2.91144C8.72886 2.33192 7.62781 2.01752 6.50222 2C4.70788 2.07801 3.01733 2.86342 1.7999 4.18464C0.582466 5.50587 -0.0628841 7.25552 0.00483915 9.05133C0.00483915 13.5992 4.78891 18.5661 8.80129 21.9338C9.69715 22.687 10.8298 23.1 12 23.1C13.1702 23.1 14.3029 22.687 15.1987 21.9338C19.2111 18.5661 23.9952 13.5992 23.9952 9.05133C24.0629 7.25552 23.4175 5.50587 22.2001 4.18464C20.9827 2.86342 19.2921 2.07801 17.4978 2Z" fill="#fff"/>
</svg>
