<svg width="32" height="32" viewBox="0 0 32 32" fill="none" xmlns="http://www.w3.org/2000/svg">
<g clip-path="url(#clip0_3356_4414)">
<path d="M16 18.668C12.8185 18.6715 9.76829 19.9369 7.51862 22.1866C5.26894 24.4363 4.00353 27.4865 4 30.668C4 31.0216 4.14048 31.3607 4.39052 31.6108C4.64057 31.8608 4.97971 32.0013 5.33333 32.0013C5.68696 32.0013 5.33333 32.0004 6 32.0013C6.66667 32.0004 7.33333 32.0004 7.33333 32.0004H10C12.6667 32.0004 12.858 32.0004 15.3333 32.0004C17.8087 32.0004 21.3333 32.0004 21.3333 32.0004C21.3333 32.0004 24 32.0004 24.4814 32.0004C24.4814 32.0004 24.6667 32.0004 25.3333 32.0004C25.3333 32.0004 26.313 32.0013 26.6667 32.0013C27.0203 32.0013 27.3594 31.8608 27.6095 31.6108C27.8595 31.3607 28 31.0216 28 30.668C27.9965 27.4865 26.7311 24.4363 24.4814 22.1866C22.2317 19.9369 19.1815 18.6715 16 18.668Z" fill="#0B0B0C"/>
<path d="M16 16C17.5823 16 19.129 15.5308 20.4446 14.6518C21.7602 13.7727 22.7855 12.5233 23.391 11.0615C23.9965 9.59966 24.155 7.99113 23.8463 6.43928C23.5376 4.88743 22.7757 3.46197 21.6569 2.34315C20.538 1.22433 19.1126 0.462403 17.5607 0.153721C16.0089 -0.15496 14.4003 0.00346629 12.9385 0.608967C11.4767 1.21447 10.2273 2.23985 9.34824 3.55544C8.46919 4.87103 8 6.41775 8 8C8.00212 10.1211 8.84565 12.1547 10.3455 13.6545C11.8453 15.1544 13.8789 15.9979 16 16Z" fill="#0B0B0C"/>
</g>
<defs>
<clipPath id="clip0_3356_4414">
<rect width="32" height="32" fill="white"/>
</clipPath>
</defs>
</svg>
