<svg width="32" height="32" viewBox="0 0 32 32" fill="none" xmlns="http://www.w3.org/2000/svg">
<g clip-path="url(#clip0_4079_3440)">
<path d="M1.33333 6.33368H4.98133C5.26751 7.38665 5.89223 8.3162 6.7591 8.97892C7.62597 9.64164 8.68683 10.0007 9.778 10.0007C10.8692 10.0007 11.93 9.64164 12.7969 8.97892C13.6638 8.3162 14.2885 7.38665 14.5747 6.33368H30.6667C31.0203 6.33368 31.3594 6.1932 31.6095 5.94315C31.8595 5.69311 32 5.35397 32 5.00035C32 4.64672 31.8595 4.30758 31.6095 4.05754C31.3594 3.80749 31.0203 3.66701 30.6667 3.66701H14.5747C14.2885 2.61404 13.6638 1.68449 12.7969 1.02177C11.93 0.359055 10.8692 0 9.778 0C8.68683 0 7.62597 0.359055 6.7591 1.02177C5.89223 1.68449 5.26751 2.61404 4.98133 3.66701H1.33333C0.979711 3.66701 0.640573 3.80749 0.390524 4.05754C0.140476 4.30758 0 4.64672 0 5.00035C0 5.35397 0.140476 5.69311 0.390524 5.94315C0.640573 6.1932 0.979711 6.33368 1.33333 6.33368V6.33368ZM9.77733 2.66701C10.2388 2.66701 10.6899 2.80386 11.0737 3.06025C11.4574 3.31664 11.7564 3.68106 11.9331 4.10742C12.1097 4.53378 12.1559 5.00293 12.0658 5.45556C11.9758 5.90818 11.7536 6.32394 11.4272 6.65026C11.1009 6.97658 10.6852 7.19881 10.2325 7.28884C9.77992 7.37888 9.31077 7.33267 8.88441 7.15606C8.45804 6.97946 8.09363 6.68039 7.83724 6.29668C7.58085 5.91296 7.444 5.46184 7.444 5.00035C7.44471 4.38172 7.69077 3.78864 8.1282 3.35121C8.56563 2.91378 9.15871 2.66772 9.77733 2.66701V2.66701Z" fill="#0B0B0C"/>
<path d="M30.6667 14.6654H27.0187C26.733 13.6122 26.1085 12.6823 25.2417 12.0193C24.3749 11.3563 23.314 10.9971 22.2227 10.9971C21.1314 10.9971 20.0704 11.3563 19.2036 12.0193C18.3368 12.6823 17.7124 13.6122 17.4267 14.6654H1.33333C0.979711 14.6654 0.640573 14.8059 0.390524 15.0559C0.140476 15.3059 0 15.6451 0 15.9987C0 16.3523 0.140476 16.6915 0.390524 16.9415C0.640573 17.1916 0.979711 17.332 1.33333 17.332H17.4267C17.7124 18.3853 18.3368 19.3151 19.2036 19.9781C20.0704 20.6411 21.1314 21.0003 22.2227 21.0003C23.314 21.0003 24.3749 20.6411 25.2417 19.9781C26.1085 19.3151 26.733 18.3853 27.0187 17.332H30.6667C31.0203 17.332 31.3594 17.1916 31.6095 16.9415C31.8595 16.6915 32 16.3523 32 15.9987C32 15.6451 31.8595 15.3059 31.6095 15.0559C31.3594 14.8059 31.0203 14.6654 30.6667 14.6654ZM22.2227 18.332C21.7612 18.332 21.3101 18.1952 20.9263 17.9388C20.5426 17.6824 20.2436 17.318 20.0669 16.8916C19.8903 16.4653 19.8441 15.9961 19.9342 15.5435C20.0242 15.0909 20.2464 14.6751 20.5728 14.3488C20.8991 14.0225 21.3148 13.8002 21.7675 13.7102C22.2201 13.6202 22.6892 13.6664 23.1156 13.843C23.542 14.0196 23.9064 14.3187 24.1628 14.7024C24.4192 15.0861 24.556 15.5372 24.556 15.9987C24.5553 16.6173 24.3092 17.2104 23.8718 17.6478C23.4344 18.0853 22.8413 18.3313 22.2227 18.332V18.332Z" fill="#0B0B0C"/>
<path d="M30.6667 25.667H14.5747C14.2885 24.614 13.6638 23.6845 12.7969 23.0218C11.93 22.3591 10.8692 22 9.778 22C8.68683 22 7.62597 22.3591 6.7591 23.0218C5.89223 23.6845 5.26751 24.614 4.98133 25.667H1.33333C0.979711 25.667 0.640573 25.8075 0.390524 26.0575C0.140476 26.3076 0 26.6467 0 27.0003C0 27.3539 0.140476 27.6931 0.390524 27.9431C0.640573 28.1932 0.979711 28.3337 1.33333 28.3337H4.98133C5.26751 29.3866 5.89223 30.3162 6.7591 30.9789C7.62597 31.6416 8.68683 32.0007 9.778 32.0007C10.8692 32.0007 11.93 31.6416 12.7969 30.9789C13.6638 30.3162 14.2885 29.3866 14.5747 28.3337H30.6667C31.0203 28.3337 31.3594 28.1932 31.6095 27.9431C31.8595 27.6931 32 27.3539 32 27.0003C32 26.6467 31.8595 26.3076 31.6095 26.0575C31.3594 25.8075 31.0203 25.667 30.6667 25.667ZM9.77733 29.3337C9.31584 29.3337 8.86472 29.1968 8.481 28.9404C8.09729 28.684 7.79822 28.3196 7.62161 27.8933C7.44501 27.4669 7.3988 26.9977 7.48883 26.5451C7.57887 26.0925 7.80109 25.6767 8.12742 25.3504C8.45374 25.0241 8.8695 24.8019 9.32212 24.7118C9.77475 24.6218 10.2439 24.668 10.6703 24.8446C11.0966 25.0212 11.461 25.3203 11.7174 25.704C11.9738 26.0877 12.1107 26.5388 12.1107 27.0003C12.1096 27.6188 11.8634 28.2117 11.4261 28.6491C10.9887 29.0864 10.3958 29.3326 9.77733 29.3337V29.3337Z" fill="#0B0B0C"/>
</g>
<defs>
<clipPath id="clip0_4079_3440">
<rect width="32" height="32" fill="white"/>
</clipPath>
</defs>
</svg>
