<svg width="10" height="17" viewBox="0 0 10 17" fill="none" xmlns="http://www.w3.org/2000/svg">
<path fill-rule="evenodd" clip-rule="evenodd" d="M2.222 8.39694C4.522 6.08994 6.77 3.83794 8.966 1.64294C9.08095 1.5221 9.14505 1.36171 9.14505 1.19494C9.14505 1.02816 9.08095 0.86777 8.966 0.746936C8.655 0.400936 8.163 0.430936 7.939 0.666936C5.663 2.94894 3.282 5.33394 0.796 7.82294C0.599 7.98494 0.5 8.17694 0.5 8.39694C0.5 8.61794 0.599 8.81494 0.796 8.98894L8.279 16.2949C8.42254 16.427 8.61193 16.4978 8.80689 16.4924C9.00185 16.487 9.18701 16.4057 9.323 16.2659C9.681 15.9069 9.543 15.5529 9.381 15.3849C6.99091 13.0591 4.60525 10.7298 2.222 8.39694Z" fill="white"/>
</svg>
