<svg width="32" height="32" viewBox="0 0 32 32" fill="none" xmlns="http://www.w3.org/2000/svg">
<g clip-path="url(#clip0_3356_4404)">
<path d="M1.33333 7.99967H30.6667C31.0203 7.99967 31.3594 7.85919 31.6095 7.60915C31.8595 7.3591 32 7.01996 32 6.66634C32 6.31272 31.8595 5.97358 31.6095 5.72353C31.3594 5.47348 31.0203 5.33301 30.6667 5.33301H1.33333C0.979711 5.33301 0.640573 5.47348 0.390524 5.72353C0.140476 5.97358 0 6.31272 0 6.66634C0 7.01996 0.140476 7.3591 0.390524 7.60915C0.640573 7.85919 0.979711 7.99967 1.33333 7.99967V7.99967Z" fill="#0B0B0C"/>
<path d="M1.33333 14.6667H20C20.3536 14.6667 20.6928 14.5262 20.9428 14.2761C21.1929 14.0261 21.3333 13.687 21.3333 13.3333C21.3333 12.9797 21.1929 12.6406 20.9428 12.3905C20.6928 12.1405 20.3536 12 20 12H1.33333C0.979711 12 0.640573 12.1405 0.390524 12.3905C0.140476 12.6406 0 12.9797 0 13.3333C0 13.687 0.140476 14.0261 0.390524 14.2761C0.640573 14.5262 0.979711 14.6667 1.33333 14.6667V14.6667Z" fill="#0B0B0C"/>
<path d="M20 25.333H1.33333C0.979711 25.333 0.640573 25.4735 0.390524 25.7235C0.140476 25.9736 0 26.3127 0 26.6663C0 27.02 0.140476 27.3591 0.390524 27.6092C0.640573 27.8592 0.979711 27.9997 1.33333 27.9997H20C20.3536 27.9997 20.6928 27.8592 20.9428 27.6092C21.1929 27.3591 21.3333 27.02 21.3333 26.6663C21.3333 26.3127 21.1929 25.9736 20.9428 25.7235C20.6928 25.4735 20.3536 25.333 20 25.333Z" fill="#0B0B0C"/>
<path d="M30.6667 18.667H1.33333C0.979711 18.667 0.640573 18.8075 0.390524 19.0575C0.140476 19.3076 0 19.6467 0 20.0003C0 20.354 0.140476 20.6931 0.390524 20.9431C0.640573 21.1932 0.979711 21.3337 1.33333 21.3337H30.6667C31.0203 21.3337 31.3594 21.1932 31.6095 20.9431C31.8595 20.6931 32 20.354 32 20.0003C32 19.6467 31.8595 19.3076 31.6095 19.0575C31.3594 18.8075 31.0203 18.667 30.6667 18.667Z" fill="#0B0B0C"/>
</g>
<defs>
<clipPath id="clip0_3356_4404">
<rect width="32" height="32" fill="white"/>
</clipPath>
</defs>
</svg>
