<svg width="16" height="16" viewBox="0 0 16 16" fill="none" xmlns="http://www.w3.org/2000/svg">
<path d="M15.4141 6.04591L10.3575 0.988578C9.73163 0.36457 8.88391 0.0141602 8.00013 0.0141602C7.11636 0.0141602 6.26863 0.36457 5.6428 0.988578L0.58613 6.04591C0.399747 6.2311 0.251977 6.45144 0.151385 6.69417C0.0507936 6.93689 -0.000618197 7.19717 0.000130123 7.45991V14.0046C0.000130123 14.535 0.210844 15.0437 0.585917 15.4188C0.960989 15.7939 1.4697 16.0046 2.00013 16.0046H14.0001C14.5306 16.0046 15.0393 15.7939 15.4143 15.4188C15.7894 15.0437 16.0001 14.535 16.0001 14.0046V7.45991C16.0009 7.19717 15.9495 6.93689 15.8489 6.69417C15.7483 6.45144 15.6005 6.2311 15.4141 6.04591V6.04591ZM10.0001 14.6712H6.00013V12.0486C6.00013 11.5181 6.21084 11.0094 6.58592 10.6344C6.96099 10.2593 7.4697 10.0486 8.00013 10.0486C8.53056 10.0486 9.03927 10.2593 9.41434 10.6344C9.78942 11.0094 10.0001 11.5181 10.0001 12.0486V14.6712ZM14.6668 14.0046C14.6668 14.1814 14.5966 14.351 14.4715 14.476C14.3465 14.601 14.1769 14.6712 14.0001 14.6712H11.3335V12.0486C11.3335 11.1645 10.9823 10.3167 10.3572 9.69156C9.73203 9.06643 8.88419 8.71524 8.00013 8.71524C7.11608 8.71524 6.26823 9.06643 5.64311 9.69156C5.01799 10.3167 4.6668 11.1645 4.6668 12.0486V14.6712H2.00013C1.82332 14.6712 1.65375 14.601 1.52873 14.476C1.4037 14.351 1.33346 14.1814 1.33346 14.0046V7.45991C1.33408 7.28323 1.40426 7.1139 1.5288 6.98858L6.58546 1.93324C6.96126 1.5592 7.46991 1.34921 8.00013 1.34921C8.53035 1.34921 9.039 1.5592 9.4148 1.93324L14.4715 6.99058C14.5955 7.11541 14.6657 7.28392 14.6668 7.45991V14.0046Z" fill="#AFB3AF"/>
</svg>
