<svg width="32" height="32" viewBox="0 0 32 32" fill="none" xmlns="http://www.w3.org/2000/svg">
<path d="M27.121 13.0476L19.536 5.46162C18.5972 4.52561 17.3257 4 16 4C14.6743 4 13.4028 4.52561 12.464 5.46162L4.87901 13.0476C4.59944 13.3254 4.37778 13.6559 4.22689 14.02C4.07601 14.3841 3.99889 14.7745 4.00001 15.1686V24.9856C4.00001 25.7813 4.31608 26.5443 4.87869 27.1069C5.4413 27.6695 6.20436 27.9856 7.00001 27.9856H25C25.7956 27.9856 26.5587 27.6695 27.1213 27.1069C27.6839 26.5443 28 25.7813 28 24.9856V15.1686C28.0011 14.7745 27.924 14.3841 27.7731 14.02C27.6222 13.6559 27.4006 13.3254 27.121 13.0476ZM19 25.9856H13V22.0516C13 21.256 13.3161 20.4929 13.8787 19.9303C14.4413 19.3677 15.2044 19.0516 16 19.0516C16.7956 19.0516 17.5587 19.3677 18.1213 19.9303C18.6839 20.4929 19 21.256 19 22.0516V25.9856ZM26 24.9856C26 25.2508 25.8946 25.5052 25.7071 25.6927C25.5196 25.8802 25.2652 25.9856 25 25.9856H21V22.0516C21 20.7255 20.4732 19.4538 19.5355 18.5161C18.5978 17.5784 17.3261 17.0516 16 17.0516C14.6739 17.0516 13.4022 17.5784 12.4645 18.5161C11.5268 19.4538 11 20.7255 11 22.0516V25.9856H7.00001C6.73479 25.9856 6.48044 25.8802 6.2929 25.6927C6.10537 25.5052 6.00001 25.2508 6.00001 24.9856V15.1686C6.00094 14.9036 6.1062 14.6496 6.29301 14.4616L13.878 6.87862C14.4417 6.31755 15.2047 6.00257 16 6.00257C16.7953 6.00257 17.5583 6.31755 18.122 6.87862L25.707 14.4646C25.8931 14.6519 25.9983 14.9046 26 15.1686V24.9856Z" fill="#0B0B0C"/>
</svg>
