<svg width="32" height="32" viewBox="0 0 32 32" fill="none" xmlns="http://www.w3.org/2000/svg">
<g clip-path="url(#clip0_4079_3424)">
<path d="M28.0013 5.33333H23.868C23.5585 3.82855 22.7397 2.47646 21.5496 1.50496C20.3595 0.533453 18.8709 0.00193937 17.3346 0L14.668 0C13.1317 0.00193937 11.6431 0.533453 10.453 1.50496C9.26288 2.47646 8.4441 3.82855 8.13463 5.33333H4.0013C3.64768 5.33333 3.30854 5.47381 3.05849 5.72386C2.80844 5.97391 2.66797 6.31304 2.66797 6.66667C2.66797 7.02029 2.80844 7.35943 3.05849 7.60948C3.30854 7.85952 3.64768 8 4.0013 8H5.33464V25.3333C5.33675 27.1008 6.03981 28.7953 7.2896 30.045C8.53938 31.2948 10.2338 31.9979 12.0013 32H20.0013C21.7688 31.9979 23.4632 31.2948 24.713 30.045C25.9628 28.7953 26.6659 27.1008 26.668 25.3333V8H28.0013C28.3549 8 28.6941 7.85952 28.9441 7.60948C29.1942 7.35943 29.3346 7.02029 29.3346 6.66667C29.3346 6.31304 29.1942 5.97391 28.9441 5.72386C28.6941 5.47381 28.3549 5.33333 28.0013 5.33333V5.33333ZM14.668 2.66667H17.3346C18.1617 2.66768 18.9681 2.9245 19.6435 3.40192C20.3188 3.87935 20.8299 4.55399 21.1066 5.33333H10.896C11.1727 4.55399 11.6838 3.87935 12.3592 3.40192C13.0345 2.9245 13.8409 2.66768 14.668 2.66667V2.66667ZM24.0013 25.3333C24.0013 26.3942 23.5799 27.4116 22.8297 28.1618C22.0796 28.9119 21.0622 29.3333 20.0013 29.3333H12.0013C10.9404 29.3333 9.92302 28.9119 9.17287 28.1618C8.42273 27.4116 8.0013 26.3942 8.0013 25.3333V8H24.0013V25.3333Z" fill="#0B0B0C"/>
<path d="M13.3333 23.9987C13.687 23.9987 14.0261 23.8582 14.2761 23.6082C14.5262 23.3581 14.6667 23.019 14.6667 22.6653V14.6654C14.6667 14.3117 14.5262 13.9726 14.2761 13.7226C14.0261 13.4725 13.687 13.332 13.3333 13.332C12.9797 13.332 12.6406 13.4725 12.3905 13.7226C12.1405 13.9726 12 14.3117 12 14.6654V22.6653C12 23.019 12.1405 23.3581 12.3905 23.6082C12.6406 23.8582 12.9797 23.9987 13.3333 23.9987Z" fill="#0B0B0C"/>
<path d="M18.6654 23.9987C19.019 23.9987 19.3581 23.8582 19.6082 23.6082C19.8582 23.3581 19.9987 23.019 19.9987 22.6653V14.6654C19.9987 14.3117 19.8582 13.9726 19.6082 13.7226C19.3581 13.4725 19.019 13.332 18.6654 13.332C18.3117 13.332 17.9726 13.4725 17.7226 13.7226C17.4725 13.9726 17.332 14.3117 17.332 14.6654V22.6653C17.332 23.019 17.4725 23.3581 17.7226 23.6082C17.9726 23.8582 18.3117 23.9987 18.6654 23.9987Z" fill="#0B0B0C"/>
</g>
<defs>
<clipPath id="clip0_4079_3424">
<rect width="32" height="32" fill="white"/>
</clipPath>
</defs>
</svg>
