<svg width="18" height="19" viewBox="0 0 18 19" fill="none" xmlns="http://www.w3.org/2000/svg">
<path d="M17.9531 7.40424C17.8352 7.03975 17.512 6.78088 17.1295 6.74641L11.9342 6.27467L9.87984 1.46625C9.72836 1.11385 9.38339 0.885742 9.00009 0.885742C8.61679 0.885742 8.27182 1.11385 8.12034 1.46707L6.06598 6.27467L0.869862 6.74641C0.488078 6.78171 0.165621 7.03975 0.0471028 7.40424C-0.0714152 7.76872 0.0380389 8.16849 0.326849 8.4205L4.25388 11.8645L3.09589 16.9655C3.01115 17.3405 3.15672 17.7282 3.46792 17.9532C3.63519 18.074 3.83089 18.1355 4.02824 18.1355C4.19839 18.1355 4.36717 18.0897 4.51865 17.999L9.00009 15.3206L13.4799 17.999C13.8077 18.1962 14.2209 18.1783 14.5314 17.9532C14.8428 17.7275 14.9882 17.3397 14.9035 16.9655L13.7455 11.8645L17.6725 8.42118C17.9613 8.16849 18.0716 7.7694 17.9531 7.40424Z" fill="#C5C5C5"/>
</svg>
