<svg width="32" height="32" viewBox="0 0 32 32" fill="none" xmlns="http://www.w3.org/2000/svg">
<g clip-path="url(#clip0_4040_3605)">
<path d="M31.609 29.7247L23.6504 21.766C25.8192 19.1135 26.8855 15.7288 26.6288 12.3121C26.3721 8.89539 24.812 5.70806 22.2712 3.40938C19.7303 1.1107 16.4032 -0.123458 12.9779 -0.0378154C9.55263 0.047827 6.29131 1.44672 3.86853 3.8695C1.44574 6.29229 0.0468505 9.55361 -0.038792 12.9789C-0.124434 16.4041 1.10972 19.7313 3.4084 22.2721C5.70708 24.813 8.89442 26.3731 12.3111 26.6298C15.7278 26.8865 19.1125 25.8202 21.765 23.6514L29.7237 31.61C29.9752 31.8529 30.312 31.9873 30.6616 31.9843C31.0112 31.9812 31.3456 31.841 31.5928 31.5938C31.84 31.3466 31.9802 31.0122 31.9833 30.6626C31.9863 30.313 31.8519 29.9762 31.609 29.7247ZM13.333 24.0007C11.2234 24.0007 9.16108 23.3751 7.40696 22.203C5.65284 21.031 4.28566 19.3651 3.47833 17.416C2.67099 15.4669 2.45976 13.3222 2.87133 11.2531C3.28291 9.18393 4.29881 7.28331 5.79057 5.79155C7.28233 4.29979 9.18295 3.28388 11.2521 2.87231C13.3212 2.46073 15.4659 2.67197 17.415 3.4793C19.3641 4.28664 21.03 5.65381 22.2021 7.40794C23.3741 9.16206 23.9997 11.2244 23.9997 13.334C23.9965 16.162 22.8717 18.8733 20.872 20.873C18.8723 22.8727 16.161 23.9975 13.333 24.0007Z" fill="#0B0B0C"/>
</g>
<defs>
<clipPath id="clip0_4040_3605">
<rect width="32" height="32" fill="white"/>
</clipPath>
</defs>
</svg>
