<svg width="32" height="32" viewBox="0 0 32 32" fill="none" xmlns="http://www.w3.org/2000/svg">
<g clip-path="url(#clip0_4061_3718)">
<path d="M23.332 2.55566C21.8306 2.57902 20.3619 2.99813 19.0743 3.77069C17.7867 4.54325 16.7258 5.64189 15.9986 6.95566C15.2715 5.64189 14.2106 4.54325 12.923 3.77069C11.6354 2.99813 10.1667 2.57902 8.66531 2.55566C6.2719 2.65965 4.01692 3.70667 2.39302 5.46797C0.769122 7.22928 -0.0916917 9.5617 -0.0013577 11.9557C-0.0013577 18.0183 6.37998 24.6397 11.732 29.129C12.9269 30.1332 14.4378 30.6837 15.9986 30.6837C17.5595 30.6837 19.0704 30.1332 20.2653 29.129C25.6173 24.6397 31.9986 18.0183 31.9986 11.9557C32.089 9.5617 31.2282 7.22928 29.6043 5.46797C27.9804 3.70667 25.7254 2.65965 23.332 2.55566ZM18.552 27.089C17.8373 27.6908 16.933 28.0209 15.9986 28.0209C15.0643 28.0209 14.16 27.6908 13.4453 27.089C6.59464 21.341 2.66531 15.8263 2.66531 11.9557C2.57416 10.2686 3.1538 8.61397 4.27779 7.3526C5.40179 6.09122 6.97895 5.32546 8.66531 5.22233C10.3517 5.32546 11.9288 6.09122 13.0528 7.3526C14.1768 8.61397 14.7565 10.2686 14.6653 11.9557C14.6653 12.3093 14.8058 12.6484 15.0558 12.8985C15.3059 13.1485 15.645 13.289 15.9986 13.289C16.3523 13.289 16.6914 13.1485 16.9415 12.8985C17.1915 12.6484 17.332 12.3093 17.332 11.9557C17.2408 10.2686 17.8205 8.61397 18.9445 7.3526C20.0685 6.09122 21.6456 5.32546 23.332 5.22233C25.0183 5.32546 26.5955 6.09122 27.7195 7.3526C28.8435 8.61397 29.4231 10.2686 29.332 11.9557C29.332 15.8263 25.4026 21.341 18.552 27.0837V27.089Z" fill="#0B0B0C"/>
</g>
<defs>
<clipPath id="clip0_4061_3718">
<rect width="32" height="32" fill="white"/>
</clipPath>
</defs>
</svg>
