<svg width="14" height="14" viewBox="0 0 14 14" fill="none" xmlns="http://www.w3.org/2000/svg">
<g id="mingcute:information-line" clip-path="url(#clip0_106_18)">
<g id="Group">
<path id="Vector" d="M7 1.16666C10.2217 1.16666 12.8333 3.77824 12.8333 6.99999C12.8333 10.2217 10.2217 12.8333 7 12.8333C3.77825 12.8333 1.16666 10.2217 1.16666 6.99999C1.16666 3.77824 3.77825 1.16666 7 1.16666ZM7 2.33332C5.76232 2.33332 4.57534 2.82499 3.70017 3.70016C2.825 4.57533 2.33333 5.76231 2.33333 6.99999C2.33333 8.23767 2.825 9.42465 3.70017 10.2998C4.57534 11.175 5.76232 11.6667 7 11.6667C8.23767 11.6667 9.42466 11.175 10.2998 10.2998C11.175 9.42465 11.6667 8.23767 11.6667 6.99999C11.6667 5.76231 11.175 4.57533 10.2998 3.70016C9.42466 2.82499 8.23767 2.33332 7 2.33332ZM6.99416 5.83332C7.31966 5.83332 7.58333 6.09699 7.58333 6.42249V9.41149C7.69453 9.4757 7.78144 9.57481 7.83057 9.69344C7.87971 9.81207 7.88833 9.9436 7.8551 10.0676C7.82186 10.1917 7.74863 10.3013 7.64676 10.3794C7.54489 10.4576 7.42007 10.5 7.29166 10.5H7.00583C6.92846 10.5 6.85185 10.4848 6.78037 10.4551C6.70889 10.4255 6.64394 10.3821 6.58923 10.3274C6.53452 10.2727 6.49112 10.2078 6.46151 10.1363C6.4319 10.0648 6.41666 9.98819 6.41666 9.91082V6.99999C6.26195 6.99999 6.11358 6.93853 6.00419 6.82914C5.89479 6.71974 5.83333 6.57137 5.83333 6.41666C5.83333 6.26195 5.89479 6.11357 6.00419 6.00418C6.11358 5.89478 6.26195 5.83332 6.41666 5.83332H6.99416ZM7 4.08332C7.15471 4.08332 7.30308 4.14478 7.41248 4.25418C7.52187 4.36357 7.58333 4.51195 7.58333 4.66666C7.58333 4.82137 7.52187 4.96974 7.41248 5.07914C7.30308 5.18853 7.15471 5.24999 7 5.24999C6.84529 5.24999 6.69692 5.18853 6.58752 5.07914C6.47812 4.96974 6.41666 4.82137 6.41666 4.66666C6.41666 4.51195 6.47812 4.36357 6.58752 4.25418C6.69692 4.14478 6.84529 4.08332 7 4.08332Z" fill="#ff8a00"/>
</g>
</g>
<defs>
<clipPath id="clip0_106_18">
<rect width="14" height="14" fill="white"/>
</clipPath>
</defs>
</svg>
