<svg width="32" height="32" viewBox="0 0 32 32" fill="none" xmlns="http://www.w3.org/2000/svg">
<path d="M23.4669 7.46665H25.6002M9.60023 1.06665H22.4002C24.6634 1.06665 26.8339 1.9657 28.4342 3.56601C30.0345 5.16632 30.9336 7.3368 30.9336 9.59998V22.4C30.9336 24.6632 30.0345 26.8337 28.4342 28.434C26.8339 30.0343 24.6634 30.9333 22.4002 30.9333H9.60023C7.33705 30.9333 5.16656 30.0343 3.56625 28.434C1.96594 26.8337 1.06689 24.6632 1.06689 22.4V9.59998C1.06689 7.3368 1.96594 5.16632 3.56625 3.56601C5.16656 1.9657 7.33705 1.06665 9.60023 1.06665ZM16.0002 22.4C14.3028 22.4 12.675 21.7257 11.4747 20.5255C10.2745 19.3252 9.60023 17.6974 9.60023 16C9.60023 14.3026 10.2745 12.6747 11.4747 11.4745C12.675 10.2743 14.3028 9.59998 16.0002 9.59998C17.6976 9.59998 19.3255 10.2743 20.5257 11.4745C21.7259 12.6747 22.4002 14.3026 22.4002 16C22.4002 17.6974 21.7259 19.3252 20.5257 20.5255C19.3255 21.7257 17.6976 22.4 16.0002 22.4Z" stroke="#0B0B0C" stroke-width="2"/>
</svg>
